# Vectary OBJ Export units=mm
mtllib Project Name.mtl
o 000_Object
g Object
usemtl Object material_490d17bb-427a-4117-8d62-6098eb362b98
o 001_mesh1161604268
g mesh1161604268
usemtl mat15 1_8766e674-3cfe-45bc-91d1-fc3afc8ac22f
v 0.000 23.582 -13.750
v -6.750 23.582 -11.941
v -2.000 43.760 -3.250
v -18.691 15.822 -14.000
v -13.500 23.582 -0.250
v -11.691 23.582 6.500
v -6.750 23.582 11.441
v 2.000 20.478 16.250
v 6.750 23.582 11.441
v 11.691 23.582 10.500
v 13.500 23.582 -0.250
v 19.691 18.926 -9.000
v 6.750 23.582 -11.941
vn -0.23360 0.43052 -0.87182
vn -0.23360 0.43052 -0.87182
vn -0.23360 0.43052 -0.87182
vn -0.11456 0.41562 -0.90229
vn -0.11456 0.41562 -0.90229
vn -0.11456 0.41562 -0.90229
vn -0.86507 0.49967 0.04459
vn -0.86507 0.49967 0.04459
vn -0.86507 0.49967 0.04459
vn -0.83229 0.50751 0.22301
vn -0.83229 0.50751 0.22301
vn -0.83229 0.50751 0.22301
vn -0.58437 0.56305 0.58437
vn -0.58437 0.56305 0.58437
vn -0.58437 0.56305 0.58437
vn -0.20625 0.60722 0.76730
vn -0.20625 0.60722 0.76730
vn -0.20625 0.60722 0.76730
vn 0.29547 0.64275 0.70680
vn 0.29547 0.64275 0.70680
vn 0.29547 0.64275 0.70680
vn 0.14638 0.62297 0.76843
vn 0.14638 0.62297 0.76843
vn 0.14638 0.62297 0.76843
vn 0.77675 0.61611 0.13068
vn 0.77675 0.61611 0.13068
vn 0.77675 0.61611 0.13068
vn 0.75991 0.61503 0.21041
vn 0.75991 0.61503 0.21041
vn 0.75991 0.61503 0.21041
vn 0.35825 0.49605 -0.79095
vn 0.35825 0.49605 -0.79095
vn 0.35825 0.49605 -0.79095
vn 0.22885 0.46712 -0.85407
vn 0.22885 0.46712 -0.85407
vn 0.22885 0.46712 -0.85407
vn 0.00000 -1.00000 -0.00000
vn 0.00000 -1.00000 -0.00000
vn 0.00000 -1.00000 -0.00000
vn 0.00000 -1.00000 -0.00000
vn 0.00000 -1.00000 -0.00000
vn 0.00000 -1.00000 -0.00000
vn 0.00000 -1.00000 -0.00000
vn 0.00000 -1.00000 -0.00000
vn 0.48820 -0.82596 0.28186
vn 0.48820 -0.82596 0.28186
vn 0.48820 -0.82596 0.28186
vn -0.37363 -0.90215 0.21571
vn -0.37363 -0.90215 0.21571
vn -0.37363 -0.90215 0.21571
vn 0.00001 -1.00000 0.00000
vn 0.00001 -1.00000 0.00000
vn 0.00001 -1.00000 0.00000
vn 0.00000 -0.84015 -0.54236
vn 0.00000 -0.84015 -0.54236
vn 0.00000 -0.84015 -0.54236
f 1//1 2//2 3//3 
f 2//4 4//5 3//6 
f 4//7 5//8 3//9 
f 5//10 6//11 3//12 
f 6//13 7//14 3//15 
f 7//16 8//17 3//18 
f 8//19 9//20 3//21 
f 9//22 10//23 3//24 
f 10//25 11//26 3//27 
f 11//28 12//29 3//30 
f 12//31 13//32 3//33 
f 13//34 1//35 3//36 
f 5//38 2//39 1//41 13//40 11//42 9//43 7//44 6//37 
f 5//45 4//46 2//47 
f 13//48 12//49 11//50 
f 11//51 10//52 9//53 
f 9//54 8//55 7//56 
o 002_mesh1104003827
g mesh1104003827
usemtl mat16_5684ef34-944d-4720-8657-5af1c7491841
v -19.750 15.046 -2.750
v -13.640 24.358 5.500
v -2.000 39.103 -2.750
v -9.875 21.254 10.539
v 0.000 24.358 13.750
v 8.875 25.910 14.539
v 13.640 24.358 5.500
v 18.750 29.015 -1.750
v 27.280 1.852 -19.250
v 9.875 24.358 -15.039
v 1.000 24.358 -12.250
v -15.750 0.300 -29.329
v -13.640 24.358 -11.000
v 31.500 1.852 -2.750
v -27.280 1.852 13.750
v -31.500 1.852 -2.750
v -15.750 1.852 25.829
v 27.280 1.852 13.750
v 19.750 1.852 32.829
v -27.280 1.852 -19.250
v 15.750 1.852 -31.329
v 0.000 1.852 -35.750
v -8.000 3.405 34.250
vn -0.80248 0.59207 -0.07401
vn -0.80248 0.59207 -0.07401
vn -0.80248 0.59207 -0.07401
vn -0.35497 0.65399 0.66805
vn -0.35497 0.65399 0.66805
vn -0.35497 0.65399 0.66805
vn -0.41189 0.65408 0.63445
vn -0.41189 0.65408 0.63445
vn -0.41189 0.65408 0.63445
vn -0.18551 0.72142 0.66718
vn -0.18551 0.72142 0.66718
vn -0.18551 0.72142 0.66718
vn 0.61678 0.76282 0.19414
vn 0.61678 0.76282 0.19414
vn 0.61678 0.76282 0.19414
vn 0.30374 0.68985 0.65715
vn 0.30374 0.68985 0.65715
vn 0.30374 0.68985 0.65715
vn 0.31905 0.58207 -0.74793
vn 0.31905 0.58207 -0.74793
vn 0.31905 0.58207 -0.74793
vn 0.79398 0.60667 0.03931
vn 0.79398 0.60667 0.03931
vn 0.79398 0.60667 0.03931
vn -0.26232 0.48436 -0.83462
vn -0.26232 0.48436 -0.83462
vn -0.26232 0.48436 -0.83462
vn 0.06079 0.54931 -0.83340
vn 0.06079 0.54931 -0.83340
vn 0.06079 0.54931 -0.83340
vn -0.22100 0.60323 -0.76634
vn -0.22100 0.60323 -0.76634
vn -0.22100 0.60323 -0.76634
vn -0.80248 0.59207 0.07401
vn -0.80248 0.59207 0.07401
vn -0.80248 0.59207 0.07401
vn 0.00000 -1.00000 0.00000
vn 0.00000 -1.00000 0.00000
vn 0.00000 -1.00000 0.00000
vn 0.00000 -1.00000 0.00000
vn 0.00000 -1.00000 0.00000
vn 0.00000 -1.00000 0.00000
vn 0.00000 -1.00000 0.00000
vn 0.00000 -1.00000 0.00000
vn 0.00000 -1.00000 0.00000
vn 0.00000 -1.00000 0.00000
vn -0.50633 0.55026 -0.66396
vn -0.50633 0.55026 -0.66396
vn -0.50633 0.55026 -0.66396
vn -0.80188 0.56117 -0.20510
vn -0.80188 0.56117 -0.20510
vn -0.80188 0.56117 -0.20510
vn -0.80188 0.56117 0.20510
vn -0.80188 0.56117 0.20510
vn -0.80188 0.56117 0.20510
vn -0.59496 0.56876 0.56792
vn -0.59496 0.56876 0.56792
vn -0.59496 0.56876 0.56792
vn -0.41206 0.63767 0.65084
vn -0.41206 0.63767 0.65084
vn -0.41206 0.63767 0.65084
vn -0.33094 0.68852 -0.64531
vn -0.33094 0.68852 -0.64531
vn -0.33094 0.68852 -0.64531
vn 0.21441 0.60880 -0.76380
vn 0.21441 0.60880 -0.76380
vn 0.21441 0.60880 -0.76380
vn 0.59577 0.56714 -0.56869
vn 0.59577 0.56714 -0.56869
vn 0.59577 0.56714 -0.56869
vn 0.87886 0.42081 -0.22478
vn 0.87886 0.42081 -0.22478
vn 0.87886 0.42081 -0.22478
vn 0.80188 0.56117 0.20510
vn 0.80188 0.56117 0.20510
vn 0.80188 0.56117 0.20510
vn 0.76263 0.57254 0.30099
vn 0.76263 0.57254 0.30099
vn 0.76263 0.57254 0.30099
vn 0.07540 0.68248 0.72701
vn 0.07540 0.68248 0.72701
vn 0.07540 0.68248 0.72701
vn -0.21102 0.71043 -0.67139
vn -0.21102 0.71043 -0.67139
vn -0.21102 0.71043 -0.67139
vn 0.68134 0.29517 0.66981
vn 0.68134 0.29517 0.66981
vn 0.68134 0.29517 0.66981
vn 0.26106 -0.86346 0.43161
vn 0.26106 -0.86346 0.43161
vn 0.26106 -0.86346 0.43161
vn 0.76093 0.57397 0.30255
vn 0.76093 0.57397 0.30255
vn 0.76093 0.57397 0.30255
vn -0.16861 0.54710 0.81991
vn -0.16861 0.54710 0.81991
vn -0.16861 0.54710 0.81991
vn -0.60875 0.66127 0.43835
vn -0.60875 0.66127 0.43835
vn -0.60875 0.66127 0.43835
vn -0.04328 -0.97466 0.21947
vn -0.04328 -0.97466 0.21947
vn -0.04328 -0.97466 0.21947
vn -0.37027 0.64154 0.67181
vn -0.37027 0.64154 0.67181
vn -0.37027 0.64154 0.67181
vn -0.73259 0.65246 0.19394
vn -0.73259 0.65246 0.19394
vn -0.73259 0.65246 0.19394
vn -0.73259 0.65246 -0.19394
vn -0.73259 0.65246 -0.19394
vn -0.73259 0.65246 -0.19394
f 14//57 15//58 16//59 
f 15//60 17//61 16//62 
f 17//63 18//64 16//65 
f 18//66 19//67 16//68 
f 19//69 20//70 16//71 
f 20//72 21//73 16//74 
f 21//75 22//76 16//77 
f 22//78 23//79 16//80 
f 23//81 24//82 16//83 
f 24//84 25//85 16//86 
f 25//87 26//88 16//89 
f 26//90 14//91 16//92 
f 29//95 33//99 35//102 34//101 22//100 27//93 31//97 32//98 30//96 28//94 
f 25//103 33//104 26//105 
f 26//106 33//107 29//108 
f 29//109 28//110 15//111 
f 15//112 28//113 30//114 
f 17//115 30//116 18//117 
f 24//118 35//119 25//120 
f 23//121 34//122 35//123 
f 22//124 34//125 23//126 
f 21//127 27//128 22//129 
f 20//130 31//131 27//132 
f 32//133 31//134 20//135 
f 18//136 36//137 32//138 
f 35//139 24//140 23//141 
f 27//142 21//143 20//144 
f 33//145 25//146 35//147 
f 20//148 19//149 32//150 
f 32//151 19//152 18//153 
f 30//154 36//155 18//156 
f 32//157 36//158 30//159 
f 30//160 17//161 15//162 
f 29//163 14//164 26//165 
f 15//166 14//167 29//168 
