# Vectary OBJ Export units=mm
mtllib Project Name.mtl
o 000_Path
g Path
usemtl Material_ee74ed2d-ebff-4acb-a9ab-a21515ef952f
v -249.655 -67.670 -51.866
v -249.655 -67.670 -44.466
v -249.655 66.740 -44.466
v -249.655 66.740 -51.866
v 249.655 3.200 -51.866
v 249.655 3.200 -44.466
v 249.655 -66.520 -44.466
v 249.655 -66.520 -51.866
v -95.514 45.208 -44.466
v -116.374 42.565 -44.466
v -90.177 -48.227 -44.466
v -70.730 -39.305 -44.466
v -138.678 41.766 -44.466
v -109.872 -56.590 -44.466
v -116.374 42.565 -51.866
v -95.514 45.208 -51.866
v -75.732 49.207 -44.466
v -51.240 -30.312 -44.466
v -70.730 -39.305 -51.866
v -90.177 -48.227 -51.866
v -138.678 41.766 -51.866
v -109.872 -56.590 -51.866
v -75.732 49.207 -51.866
v -56.664 54.077 -44.466
v -31.414 -21.739 -44.466
v -51.240 -30.312 -51.866
v -162.793 43.297 -44.466
v -151.181 -69.685 -44.466
v -130.110 -63.906 -44.466
v -130.110 -63.906 -51.866
v -162.793 43.297 -51.866
v -56.664 54.077 -51.866
v -37.943 59.329 -44.466
v -10.959 -14.072 -44.466
v -31.414 -21.739 -51.866
v -189.083 47.646 -44.466
v -173.379 -73.440 -44.466
v -151.181 -69.685 -51.866
v -189.083 47.646 -51.866
v -37.943 59.329 -51.866
v 10.415 -7.801 -44.466
v -19.204 64.479 -44.466
v -10.959 -14.072 -51.866
v -222.323 -72.921 -44.466
v -197.166 -74.670 -44.466
v -196.770 -74.670 -44.466
v -173.379 -73.440 -51.866
v -217.916 55.298 -51.866
v -217.916 55.298 -44.466
v -19.204 64.479 -51.866
v 10.415 -7.801 -51.866
v -222.323 -72.921 -51.866
v -197.166 -74.670 -51.866
v -196.770 -74.670 -51.866
v -0.080 69.038 -44.466
v -0.080 69.038 -51.866
v 33.004 -3.415 -44.466
v 19.793 72.520 -44.466
v 33.004 -3.415 -51.866
v 19.793 72.520 -51.866
v 57.097 -1.401 -44.466
v 40.781 74.439 -44.466
v 57.097 -1.401 -51.866
v 40.781 74.439 -51.866
v 82.989 -2.250 -51.866
v 82.989 -2.250 -44.466
v 63.251 74.307 -44.466
v 63.251 74.307 -51.866
v 87.568 71.638 -44.466
v 110.972 -6.449 -51.866
v 110.972 -6.449 -44.466
v 87.568 71.638 -51.866
v 114.097 65.945 -44.466
v 141.337 -14.486 -51.866
v 141.337 -14.486 -44.466
v 114.097 65.945 -51.866
v 175.257 43.541 -44.466
v 143.205 56.742 -44.466
v 174.378 -26.852 -51.866
v 174.378 -26.852 -44.466
v 143.205 56.742 -51.866
v 175.257 43.541 -51.866
v 210.618 25.856 -44.466
v 210.386 -44.033 -51.866
v 210.386 -44.033 -44.466
v 210.618 25.856 -51.866
vn -1.00000 0.00000 0.00000
vn -1.00000 0.00000 0.00000
vn -1.00000 0.00000 0.00000
vn -1.00000 0.00000 0.00000
vn 1.00000 0.00000 0.00000
vn 1.00000 0.00000 0.00000
vn 1.00000 0.00000 0.00000
vn 1.00000 0.00000 0.00000
vn 0.00000 -0.00000 1.00000
vn 0.00000 -0.00000 1.00000
vn 0.00000 -0.00000 1.00000
vn 0.00000 -0.00000 1.00000
vn 0.00000 -0.00000 1.00000
vn 0.00000 -0.00000 1.00000
vn 0.00000 -0.00000 1.00000
vn 0.00000 -0.00000 1.00000
vn -0.12568 0.99207 0.00000
vn -0.12568 0.99207 0.00000
vn -0.12568 0.99207 0.00000
vn -0.12568 0.99207 0.00000
vn 0.00000 -0.00000 1.00000
vn 0.00000 -0.00000 1.00000
vn 0.00000 -0.00000 1.00000
vn 0.00000 -0.00000 1.00000
vn 0.41700 -0.90891 -0.00000
vn 0.41700 -0.90891 -0.00000
vn 0.41700 -0.90891 -0.00000
vn 0.41700 -0.90891 -0.00000
vn -0.03580 0.99936 0.00000
vn -0.03580 0.99936 0.00000
vn -0.03580 0.99936 0.00000
vn -0.03580 0.99936 0.00000
vn 0.39084 -0.92046 -0.00000
vn 0.39084 -0.92046 -0.00000
vn 0.39084 -0.92046 -0.00000
vn 0.39084 -0.92046 -0.00000
vn 0.00000 0.00000 -1.00000
vn 0.00000 0.00000 -1.00000
vn 0.00000 0.00000 -1.00000
vn 0.00000 0.00000 -1.00000
vn -0.19817 0.98017 0.00000
vn -0.19817 0.98017 0.00000
vn -0.19817 0.98017 0.00000
vn -0.19817 0.98017 0.00000
vn 0.00000 -0.00000 1.00000
vn 0.00000 -0.00000 1.00000
vn 0.00000 -0.00000 1.00000
vn 0.00000 -0.00000 1.00000
vn 0.41893 -0.90802 -0.00000
vn 0.41893 -0.90802 -0.00000
vn 0.41893 -0.90802 -0.00000
vn 0.41893 -0.90802 -0.00000
vn 0.00000 -0.00000 1.00000
vn 0.00000 -0.00000 1.00000
vn 0.00000 -0.00000 1.00000
vn 0.00000 -0.00000 1.00000
vn 0.33997 -0.94044 -0.00000
vn 0.33997 -0.94044 -0.00000
vn 0.33997 -0.94044 -0.00000
vn 0.33997 -0.94044 -0.00000
vn 0.06337 0.99799 0.00000
vn 0.06337 0.99799 0.00000
vn 0.06337 0.99799 0.00000
vn 0.06337 0.99799 0.00000
vn 0.00000 0.00000 -1.00000
vn 0.00000 0.00000 -1.00000
vn 0.00000 0.00000 -1.00000
vn 0.00000 0.00000 -1.00000
vn 0.00000 0.00000 -1.00000
vn 0.00000 0.00000 -1.00000
vn 0.00000 0.00000 -1.00000
vn 0.00000 0.00000 -1.00000
vn -0.24743 0.96891 0.00000
vn -0.24743 0.96891 0.00000
vn -0.24743 0.96891 0.00000
vn -0.24743 0.96891 0.00000
vn 0.00000 -0.00000 1.00000
vn 0.00000 -0.00000 1.00000
vn 0.00000 -0.00000 1.00000
vn 0.00000 -0.00000 1.00000
vn 0.39692 -0.91785 -0.00000
vn 0.39692 -0.91785 -0.00000
vn 0.39692 -0.91785 -0.00000
vn 0.39692 -0.91785 -0.00000
vn 0.00000 -0.00000 1.00000
vn 0.00000 -0.00000 1.00000
vn 0.00000 -0.00000 1.00000
vn 0.00000 -0.00000 1.00000
vn 0.26452 -0.96438 -0.00000
vn 0.26452 -0.96438 -0.00000
vn 0.26452 -0.96438 -0.00000
vn 0.26452 -0.96438 -0.00000
vn 0.16317 0.98660 0.00000
vn 0.16317 0.98660 0.00000
vn 0.16317 0.98660 0.00000
vn 0.16317 0.98660 0.00000
vn 0.00000 0.00000 -1.00000
vn 0.00000 0.00000 -1.00000
vn 0.00000 0.00000 -1.00000
vn 0.00000 0.00000 -1.00000
vn 0.00000 0.00000 -1.00000
vn 0.00000 0.00000 -1.00000
vn 0.00000 0.00000 -1.00000
vn 0.00000 0.00000 -1.00000
vn -0.27015 0.96282 0.00000
vn -0.27015 0.96282 0.00000
vn -0.27015 0.96282 0.00000
vn -0.27015 0.96282 0.00000
vn 0.00000 -0.00000 1.00000
vn 0.00000 -0.00000 1.00000
vn 0.00000 -0.00000 1.00000
vn 0.00000 -0.00000 1.00000
vn 0.35097 -0.93639 -0.00000
vn 0.35097 -0.93639 -0.00000
vn 0.35097 -0.93639 -0.00000
vn 0.35097 -0.93639 -0.00000
vn 0.00000 -0.00000 1.00000
vn 0.00000 -0.00000 1.00000
vn 0.00000 -0.00000 1.00000
vn 0.00000 -0.00000 1.00000
vn 0.00000 -0.00000 1.00000
vn 0.16679 -0.98599 -0.00000
vn 0.16679 -0.98599 -0.00000
vn 0.16679 -0.98599 -0.00000
vn 0.16679 -0.98599 -0.00000
vn 0.25652 0.96654 0.00000
vn 0.25652 0.96654 0.00000
vn 0.25652 0.96654 0.00000
vn 0.25652 0.96654 0.00000
vn 0.00000 0.00000 -1.00000
vn 0.00000 0.00000 -1.00000
vn 0.00000 0.00000 -1.00000
vn 0.00000 0.00000 -1.00000
vn 0.00000 0.00000 -1.00000
vn 0.00000 0.00000 -1.00000
vn 0.00000 0.00000 -1.00000
vn 0.00000 0.00000 -1.00000
vn -0.26497 0.96426 0.00000
vn -0.26497 0.96426 0.00000
vn -0.26497 0.96426 0.00000
vn -0.26497 0.96426 0.00000
vn 0.28151 -0.95956 -0.00000
vn 0.28151 -0.95956 -0.00000
vn 0.28151 -0.95956 -0.00000
vn 0.28151 -0.95956 -0.00000
vn -0.06934 -0.99759 -0.00000
vn -0.06934 -0.99759 -0.00000
vn -0.06934 -0.99759 -0.00000
vn -0.06934 -0.99759 -0.00000
vn 0.00000 -0.00000 1.00000
vn 0.00000 -0.00000 1.00000
vn 0.00000 -0.00000 1.00000
vn 0.00000 -0.00000 1.00000
vn 0.05250 -0.99862 -0.00000
vn 0.05250 -0.99862 -0.00000
vn 0.05250 -0.99862 -0.00000
vn 0.05250 -0.99862 -0.00000
vn 0.33915 0.94073 0.00000
vn 0.33915 0.94073 0.00000
vn 0.33915 0.94073 0.00000
vn 0.33915 0.94073 0.00000
vn 0.00000 0.00000 -1.00000
vn 0.00000 0.00000 -1.00000
vn 0.00000 0.00000 -1.00000
vn 0.00000 0.00000 -1.00000
vn 0.00000 0.00000 -1.00000
vn 0.00000 0.00000 -1.00000
vn 0.00000 0.00000 -1.00000
vn 0.00000 0.00000 -1.00000
vn 0.00000 0.00000 -1.00000
vn 0.00000 0.00000 -1.00000
vn 0.00000 0.00000 -1.00000
vn 0.00000 0.00000 -1.00000
vn 0.00000 0.00000 -1.00000
vn -0.23191 0.97274 0.00000
vn -0.23191 0.97274 0.00000
vn -0.23191 0.97274 0.00000
vn -0.23191 0.97274 0.00000
vn 0.00000 -0.00000 1.00000
vn 0.00000 -0.00000 1.00000
vn 0.00000 -0.00000 1.00000
vn 0.00000 -0.00000 1.00000
vn 0.19063 -0.98166 -0.00000
vn 0.19063 -0.98166 -0.00000
vn 0.19063 -0.98166 -0.00000
vn 0.19063 -0.98166 -0.00000
vn -0.18868 -0.98204 -0.00000
vn -0.18868 -0.98204 -0.00000
vn -0.18868 -0.98204 -0.00000
vn -0.18868 -0.98204 -0.00000
vn -0.17259 0.98499 0.00000
vn -0.17259 0.98499 0.00000
vn -0.17259 0.98499 0.00000
vn -0.17259 0.98499 0.00000
vn 0.00000 -0.00000 1.00000
vn 0.00000 -0.00000 1.00000
vn 0.00000 -0.00000 1.00000
vn 0.00000 -0.00000 1.00000
vn 0.08327 -0.99653 -0.00000
vn 0.08327 -0.99653 -0.00000
vn 0.08327 -0.99653 -0.00000
vn 0.08327 -0.99653 -0.00000
vn 0.00000 0.00000 -1.00000
vn 0.00000 0.00000 -1.00000
vn 0.00000 0.00000 -1.00000
vn 0.00000 0.00000 -1.00000
vn -0.09103 0.99585 0.00000
vn -0.09103 0.99585 0.00000
vn -0.09103 0.99585 0.00000
vn -0.09103 0.99585 0.00000
vn -0.03275 -0.99946 -0.00000
vn -0.03275 -0.99946 -0.00000
vn -0.03275 -0.99946 -0.00000
vn -0.03275 -0.99946 -0.00000
vn 0.00000 0.00000 -1.00000
vn 0.00000 0.00000 -1.00000
vn 0.00000 0.00000 -1.00000
vn 0.00000 0.00000 -1.00000
vn 0.00587 0.99998 0.00000
vn 0.00587 0.99998 0.00000
vn 0.00587 0.99998 0.00000
vn 0.00587 0.99998 0.00000
vn 0.00000 -0.00000 1.00000
vn 0.00000 -0.00000 1.00000
vn 0.00000 -0.00000 1.00000
vn 0.00000 -0.00000 1.00000
vn -0.14839 -0.98893 -0.00000
vn -0.14839 -0.98893 -0.00000
vn -0.14839 -0.98893 -0.00000
vn -0.14839 -0.98893 -0.00000
vn 0.00000 0.00000 -1.00000
vn 0.00000 0.00000 -1.00000
vn 0.00000 0.00000 -1.00000
vn 0.00000 0.00000 -1.00000
vn 0.10910 0.99403 0.00000
vn 0.10910 0.99403 0.00000
vn 0.10910 0.99403 0.00000
vn 0.10910 0.99403 0.00000
vn 0.00000 -0.00000 1.00000
vn 0.00000 -0.00000 1.00000
vn 0.00000 -0.00000 1.00000
vn 0.00000 -0.00000 1.00000
vn -0.25589 -0.96671 -0.00000
vn -0.25589 -0.96671 -0.00000
vn -0.25589 -0.96671 -0.00000
vn -0.25589 -0.96671 -0.00000
vn 0.00000 0.00000 -1.00000
vn 0.00000 0.00000 -1.00000
vn 0.00000 0.00000 -1.00000
vn 0.00000 0.00000 -1.00000
vn 0.20981 0.97774 0.00000
vn 0.20981 0.97774 0.00000
vn 0.20981 0.97774 0.00000
vn 0.20981 0.97774 0.00000
vn 0.00000 -0.00000 1.00000
vn 0.00000 -0.00000 1.00000
vn 0.00000 -0.00000 1.00000
vn 0.00000 -0.00000 1.00000
vn -0.35050 -0.93656 -0.00000
vn -0.35050 -0.93656 -0.00000
vn -0.35050 -0.93656 -0.00000
vn -0.35050 -0.93656 -0.00000
vn 0.00000 0.00000 -1.00000
vn 0.00000 0.00000 -1.00000
vn 0.00000 0.00000 -1.00000
vn 0.00000 0.00000 -1.00000
vn 0.30148 0.95347 0.00000
vn 0.30148 0.95347 0.00000
vn 0.30148 0.95347 0.00000
vn 0.30148 0.95347 0.00000
vn 0.00000 -0.00000 1.00000
vn 0.00000 -0.00000 1.00000
vn 0.00000 -0.00000 1.00000
vn 0.00000 -0.00000 1.00000
vn 0.38083 0.92465 0.00000
vn 0.38083 0.92465 0.00000
vn 0.38083 0.92465 0.00000
vn 0.38083 0.92465 0.00000
vn -0.43064 -0.90252 -0.00000
vn -0.43064 -0.90252 -0.00000
vn -0.43064 -0.90252 -0.00000
vn -0.43064 -0.90252 -0.00000
vn 0.00000 0.00000 -1.00000
vn 0.00000 0.00000 -1.00000
vn 0.00000 0.00000 -1.00000
vn 0.00000 0.00000 -1.00000
vn 0.00000 -0.00000 1.00000
vn 0.00000 -0.00000 1.00000
vn 0.00000 -0.00000 1.00000
vn 0.00000 -0.00000 1.00000
vn 0.44730 0.89438 0.00000
vn 0.44730 0.89438 0.00000
vn 0.44730 0.89438 0.00000
vn 0.44730 0.89438 0.00000
vn -0.49693 -0.86779 -0.00000
vn -0.49693 -0.86779 -0.00000
vn -0.49693 -0.86779 -0.00000
vn -0.49693 -0.86779 -0.00000
vn 0.00000 0.00000 -1.00000
vn 0.00000 0.00000 -1.00000
vn 0.00000 0.00000 -1.00000
vn 0.00000 0.00000 -1.00000
vn 0.50196 0.86489 0.00000
vn 0.50196 0.86489 0.00000
vn 0.50196 0.86489 0.00000
vn 0.50196 0.86489 0.00000
vn 0.00000 -1.00000 -0.00000
vn 0.00000 -1.00000 -0.00000
vn 0.00000 -1.00000 -0.00000
vn 0.00000 -1.00000 -0.00000
vn 0.00000 -0.00000 1.00000
vn 0.00000 -0.00000 1.00000
vn 0.00000 -0.00000 1.00000
vn 0.00000 0.00000 -1.00000
vn 0.00000 0.00000 -1.00000
vn 0.00000 0.00000 -1.00000
vn 0.00000 -0.00000 1.00000
vn 0.00000 -0.00000 1.00000
vn 0.00000 -0.00000 1.00000
vn 0.00000 -0.00000 1.00000
vn 0.00000 -0.00000 1.00000
vn 0.00000 -0.00000 1.00000
vn 0.00000 0.00000 -1.00000
vn 0.00000 0.00000 -1.00000
vn 0.00000 0.00000 -1.00000
vn 0.00000 0.00000 -1.00000
vn 0.00000 0.00000 -1.00000
vn 0.00000 0.00000 -1.00000
vn 0.00000 -0.00000 1.00000
vn 0.00000 -0.00000 1.00000
vn 0.00000 -0.00000 1.00000
vn 0.00000 0.00000 -1.00000
vn 0.00000 0.00000 -1.00000
vn 0.00000 0.00000 -1.00000
vn 0.00000 -0.00000 1.00000
vn 0.00000 -0.00000 1.00000
vn 0.00000 -0.00000 1.00000
vn 0.00000 0.00000 -1.00000
vn 0.00000 0.00000 -1.00000
vn 0.00000 0.00000 -1.00000
vn 0.00000 -0.00000 1.00000
vn 0.00000 -0.00000 1.00000
vn 0.00000 -0.00000 1.00000
vn 0.00000 0.00000 -1.00000
vn 0.00000 0.00000 -1.00000
vn 0.00000 0.00000 -1.00000
f 2//2 3//3 4//4 1//1 
f 6//6 7//7 8//8 5//5 
f 10//10 11//11 12//12 9//9 
f 13//14 14//15 11//16 10//13 
f 10//18 9//19 16//20 15//17 
f 9//22 12//23 18//24 17//21 
f 12//26 11//27 20//28 19//25 
f 13//30 10//31 15//32 21//29 
f 11//34 14//35 22//36 20//33 
f 16//38 19//39 20//40 15//37 
f 9//42 17//43 23//44 16//41 
f 17//46 18//47 25//48 24//45 
f 18//50 12//51 19//52 26//49 
f 27//54 28//55 29//56 13//53 
f 14//58 29//59 30//60 22//57 
f 27//62 13//63 21//64 31//61 
f 15//66 20//67 22//68 21//65 
f 23//70 26//71 19//72 16//69 
f 17//74 24//75 32//76 23//73 
f 24//78 25//79 34//80 33//77 
f 25//82 18//83 26//84 35//81 
f 36//86 37//87 28//88 27//85 
f 29//90 28//91 38//92 30//89 
f 36//94 27//95 31//96 39//93 
f 21//98 30//99 38//100 31//97 
f 32//102 35//103 26//104 23//101 
f 24//106 33//107 40//108 32//105 
f 42//110 33//111 34//112 41//109 
f 34//114 25//115 35//116 43//113 
f 45//118 46//120 37//121 36//119 44//117 
f 28//123 37//124 47//125 38//122 
f 49//127 36//128 39//129 48//126 
f 31//131 38//132 47//133 39//130 
f 40//135 43//136 35//137 32//134 
f 33//139 42//140 50//141 40//138 
f 41//143 34//144 43//145 51//142 
f 53//147 45//148 44//149 52//146 
f 49//151 2//152 44//153 36//150 
f 46//155 54//156 47//157 37//154 
f 3//159 49//160 48//161 4//158 
f 39//163 52//164 1//165 48//162 
f 54//167 53//169 52//170 39//168 47//166 
f 51//172 43//173 40//174 50//171 
f 42//176 55//177 56//178 50//175 
f 41//180 57//181 58//182 55//179 
f 57//184 41//185 51//186 59//183 
f 44//188 2//189 1//190 52//187 
f 55//192 58//193 60//194 56//191 
f 57//196 61//197 62//198 58//195 
f 61//200 57//201 59//202 63//199 
f 56//204 60//205 59//206 51//203 
f 58//208 62//209 64//210 60//207 
f 66//212 61//213 63//214 65//211 
f 60//216 64//217 63//218 59//215 
f 62//220 67//221 68//222 64//219 
f 66//224 69//225 67//226 61//223 
f 71//228 66//229 65//230 70//227 
f 63//232 68//233 72//234 65//231 
f 67//236 69//237 72//238 68//235 
f 71//240 73//241 69//242 66//239 
f 75//244 71//245 70//246 74//243 
f 65//248 72//249 76//250 70//247 
f 69//252 73//253 76//254 72//251 
f 75//256 77//257 78//258 71//255 
f 80//260 75//261 74//262 79//259 
f 70//264 81//265 82//266 74//263 
f 73//268 78//269 81//270 76//267 
f 80//272 83//273 77//274 75//271 
f 78//276 77//277 82//278 81//275 
f 85//280 80//281 79//282 84//279 
f 74//284 82//285 86//286 79//283 
f 6//288 83//289 80//290 85//287 
f 77//292 83//293 86//294 82//291 
f 7//296 85//297 84//298 8//295 
f 84//300 79//301 86//302 5//299 
f 83//304 6//305 5//306 86//303 
f 54//308 46//309 45//310 53//307 
f 29//311 14//312 13//313 
f 21//314 22//315 30//316 
f 41//317 55//318 42//319 
f 2//320 49//321 3//322 
f 4//323 48//324 1//325 
f 50//326 56//327 51//328 
f 61//329 67//330 62//331 
f 64//332 68//333 63//334 
f 71//335 78//336 73//337 
f 76//338 81//339 70//340 
f 7//341 6//342 85//343 
f 84//344 5//345 8//346 
