# Vectary OBJ Export units=mm
mtllib Project Name.mtl
o 000_Tube
g Tube
usemtl Tube material_2f71d4cf-3d47-4226-a700-5b06c9085154
v 42.000 78.285 0.000
v 41.285 86.002 0.000
v 49.149 87.472 0.000
v 50.000 78.285 0.000
v 42.000 78.285 1.000
v 49.149 87.472 1.000
v 41.285 86.002 1.000
v 50.000 78.285 1.000
v 39.164 93.457 0.000
v 46.624 96.347 0.000
v 46.624 96.347 1.000
v 39.164 93.457 1.000
v 35.709 100.395 0.000
v 42.511 104.606 0.000
v 42.511 104.606 1.000
v 35.709 100.395 1.000
v 31.038 106.580 0.000
v 36.950 111.970 0.000
v 36.950 111.970 1.000
v 31.038 106.580 1.000
v 25.311 111.801 0.000
v 30.132 118.186 0.000
v 30.132 118.186 1.000
v 25.311 111.801 1.000
v 18.721 115.882 0.000
v 22.287 123.043 0.000
v 22.287 123.043 1.000
v 18.721 115.882 1.000
v 11.494 118.681 0.000
v 13.683 126.376 0.000
v 13.683 126.376 1.000
v 11.494 118.681 1.000
v 3.875 120.106 0.000
v 4.613 128.071 0.000
v 4.613 128.071 1.000
v 3.875 120.106 1.000
v -3.875 120.106 0.000
v -4.613 128.071 0.000
v -4.613 128.071 1.000
v -3.875 120.106 1.000
v -11.494 118.681 0.000
v -13.683 126.376 0.000
v -13.683 126.376 1.000
v -11.494 118.681 1.000
v -18.721 115.882 0.000
v -22.287 123.043 0.000
v -22.287 123.043 1.000
v -18.721 115.882 1.000
v -25.311 111.801 0.000
v -30.132 118.186 0.000
v -30.132 118.186 1.000
v -25.311 111.801 1.000
v -31.038 106.580 0.000
v -36.950 111.970 0.000
v -36.950 111.970 1.000
v -31.038 106.580 1.000
v -35.709 100.395 0.000
v -42.511 104.606 0.000
v -42.511 104.606 1.000
v -35.709 100.395 1.000
v -39.164 93.457 0.000
v -46.624 96.347 0.000
v -46.624 96.347 1.000
v -39.164 93.457 1.000
v -41.285 86.002 0.000
v -49.149 87.472 0.000
v -49.149 87.472 1.000
v -41.285 86.002 1.000
v -42.000 78.285 0.000
v -50.000 78.285 0.000
v -50.000 78.285 1.000
v -42.000 78.285 1.000
v -41.285 70.567 0.000
v -49.149 69.097 0.000
v -49.149 69.097 1.000
v -41.285 70.567 1.000
v -39.164 63.113 0.000
v -46.624 60.223 0.000
v -46.624 60.223 1.000
v -39.164 63.113 1.000
v -35.709 56.175 0.000
v -42.511 51.963 0.000
v -42.511 51.963 1.000
v -35.709 56.175 1.000
v -31.038 49.990 0.000
v -36.950 44.600 0.000
v -36.950 44.600 1.000
v -31.038 49.990 1.000
v -25.311 44.768 0.000
v -30.132 38.384 0.000
v -30.132 38.384 1.000
v -25.311 44.768 1.000
v -18.721 40.688 0.000
v -22.287 33.527 0.000
v -22.287 33.527 1.000
v -18.721 40.688 1.000
v -11.494 37.888 0.000
v -13.683 30.193 0.000
v -13.683 30.193 1.000
v -11.494 37.888 1.000
v -3.875 36.464 0.000
v -4.613 28.498 0.000
v -4.613 28.498 1.000
v -3.875 36.464 1.000
v 3.875 36.464 0.000
v 4.613 28.498 0.000
v 4.613 28.498 1.000
v 3.875 36.464 1.000
v 11.494 37.888 0.000
v 13.683 30.193 0.000
v 13.683 30.193 1.000
v 11.494 37.888 1.000
v 18.721 40.688 0.000
v 22.287 33.527 0.000
v 22.287 33.527 1.000
v 18.721 40.688 1.000
v 25.311 44.768 0.000
v 30.132 38.384 0.000
v 30.132 38.384 1.000
v 25.311 44.768 1.000
v 31.038 49.990 0.000
v 36.950 44.600 0.000
v 36.950 44.600 1.000
v 31.038 49.990 1.000
v 35.709 56.175 0.000
v 42.511 51.963 0.000
v 42.511 51.963 1.000
v 35.709 56.175 1.000
v 39.164 63.113 0.000
v 46.624 60.223 0.000
v 46.624 60.223 1.000
v 39.164 63.113 1.000
v 41.285 70.567 0.000
v 49.149 69.097 0.000
v 49.149 69.097 1.000
v 41.285 70.567 1.000
vn 0.00000 0.00000 -1.00000
vn 0.00000 0.00000 -1.00000
vn 0.00000 0.00000 -1.00000
vn 0.00000 0.00000 -1.00000
vn 0.00000 0.00000 1.00000
vn 0.00000 0.00000 1.00000
vn 0.00000 0.00000 1.00000
vn 0.00000 0.00000 1.00000
vn 0.00000 0.00000 -1.00000
vn 0.00000 0.00000 -1.00000
vn 0.00000 0.00000 -1.00000
vn 0.00000 0.00000 -1.00000
vn 0.00000 0.00000 1.00000
vn 0.00000 0.00000 1.00000
vn 0.00000 0.00000 1.00000
vn 0.00000 0.00000 1.00000
vn 0.00000 0.00000 -1.00000
vn 0.00000 0.00000 -1.00000
vn 0.00000 0.00000 -1.00000
vn 0.00000 0.00000 -1.00000
vn 0.00000 0.00000 1.00000
vn 0.00000 0.00000 1.00000
vn 0.00000 0.00000 1.00000
vn 0.00000 0.00000 1.00000
vn 0.00000 0.00000 -1.00000
vn 0.00000 0.00000 -1.00000
vn 0.00000 0.00000 -1.00000
vn 0.00000 0.00000 -1.00000
vn 0.00000 0.00000 1.00000
vn 0.00000 0.00000 1.00000
vn 0.00000 0.00000 1.00000
vn 0.00000 0.00000 1.00000
vn 0.00000 0.00000 -1.00000
vn 0.00000 0.00000 -1.00000
vn 0.00000 0.00000 -1.00000
vn 0.00000 0.00000 -1.00000
vn 0.00000 0.00000 1.00000
vn 0.00000 0.00000 1.00000
vn 0.00000 0.00000 1.00000
vn 0.00000 0.00000 1.00000
vn 0.00000 0.00000 -1.00000
vn 0.00000 0.00000 -1.00000
vn 0.00000 0.00000 -1.00000
vn 0.00000 0.00000 -1.00000
vn 0.00000 0.00000 1.00000
vn 0.00000 0.00000 1.00000
vn 0.00000 0.00000 1.00000
vn 0.00000 0.00000 1.00000
vn 0.00000 0.00000 -1.00000
vn 0.00000 0.00000 -1.00000
vn 0.00000 0.00000 -1.00000
vn 0.00000 0.00000 -1.00000
vn 0.00000 0.00000 1.00000
vn 0.00000 0.00000 1.00000
vn 0.00000 0.00000 1.00000
vn 0.00000 0.00000 1.00000
vn 0.00000 0.00000 -1.00000
vn 0.00000 0.00000 -1.00000
vn 0.00000 0.00000 -1.00000
vn 0.00000 0.00000 -1.00000
vn 0.00000 0.00000 1.00000
vn 0.00000 0.00000 1.00000
vn 0.00000 0.00000 1.00000
vn 0.00000 0.00000 1.00000
vn 0.00000 0.00000 -1.00000
vn 0.00000 0.00000 -1.00000
vn 0.00000 0.00000 -1.00000
vn 0.00000 0.00000 -1.00000
vn 0.00000 0.00000 1.00000
vn 0.00000 0.00000 1.00000
vn 0.00000 0.00000 1.00000
vn 0.00000 0.00000 1.00000
vn 0.00000 0.00000 -1.00000
vn 0.00000 0.00000 -1.00000
vn 0.00000 0.00000 -1.00000
vn 0.00000 0.00000 -1.00000
vn 0.00000 0.00000 1.00000
vn 0.00000 0.00000 1.00000
vn 0.00000 0.00000 1.00000
vn 0.00000 0.00000 1.00000
vn 0.00000 0.00000 -1.00000
vn 0.00000 0.00000 -1.00000
vn 0.00000 0.00000 -1.00000
vn 0.00000 0.00000 -1.00000
vn 0.00000 0.00000 1.00000
vn 0.00000 0.00000 1.00000
vn 0.00000 0.00000 1.00000
vn 0.00000 0.00000 1.00000
vn 0.00000 0.00000 -1.00000
vn 0.00000 0.00000 -1.00000
vn 0.00000 0.00000 -1.00000
vn 0.00000 0.00000 -1.00000
vn 0.00000 0.00000 1.00000
vn 0.00000 0.00000 1.00000
vn 0.00000 0.00000 1.00000
vn 0.00000 0.00000 1.00000
vn 0.00000 0.00000 -1.00000
vn 0.00000 0.00000 -1.00000
vn 0.00000 0.00000 -1.00000
vn 0.00000 0.00000 -1.00000
vn 0.00000 0.00000 1.00000
vn 0.00000 0.00000 1.00000
vn 0.00000 0.00000 1.00000
vn 0.00000 0.00000 1.00000
vn 0.00000 0.00000 -1.00000
vn 0.00000 0.00000 -1.00000
vn 0.00000 0.00000 -1.00000
vn 0.00000 0.00000 -1.00000
vn 0.00000 0.00000 1.00000
vn 0.00000 0.00000 1.00000
vn 0.00000 0.00000 1.00000
vn 0.00000 0.00000 1.00000
vn 0.00000 0.00000 -1.00000
vn 0.00000 0.00000 -1.00000
vn 0.00000 0.00000 -1.00000
vn 0.00000 0.00000 -1.00000
vn 0.00000 0.00000 1.00000
vn 0.00000 0.00000 1.00000
vn 0.00000 0.00000 1.00000
vn 0.00000 0.00000 1.00000
vn 0.00000 0.00000 -1.00000
vn 0.00000 0.00000 -1.00000
vn 0.00000 0.00000 -1.00000
vn 0.00000 0.00000 -1.00000
vn 0.00000 0.00000 1.00000
vn 0.00000 0.00000 1.00000
vn 0.00000 0.00000 1.00000
vn 0.00000 0.00000 1.00000
vn 0.00000 0.00000 -1.00000
vn 0.00000 0.00000 -1.00000
vn 0.00000 0.00000 -1.00000
vn 0.00000 0.00000 -1.00000
vn 0.00000 0.00000 1.00000
vn 0.00000 0.00000 1.00000
vn 0.00000 0.00000 1.00000
vn 0.00000 0.00000 1.00000
vn 0.00000 0.00000 -1.00000
vn 0.00000 0.00000 -1.00000
vn 0.00000 0.00000 -1.00000
vn 0.00000 0.00000 -1.00000
vn 0.00000 0.00000 1.00000
vn 0.00000 0.00000 1.00000
vn 0.00000 0.00000 1.00000
vn 0.00000 0.00000 1.00000
vn 0.00000 0.00000 -1.00000
vn 0.00000 0.00000 -1.00000
vn 0.00000 0.00000 -1.00000
vn 0.00000 0.00000 -1.00000
vn 0.00000 0.00000 1.00000
vn 0.00000 0.00000 1.00000
vn 0.00000 0.00000 1.00000
vn 0.00000 0.00000 1.00000
vn 0.00000 0.00000 -1.00000
vn 0.00000 0.00000 -1.00000
vn 0.00000 0.00000 -1.00000
vn 0.00000 0.00000 -1.00000
vn 0.00000 0.00000 1.00000
vn 0.00000 0.00000 1.00000
vn 0.00000 0.00000 1.00000
vn 0.00000 0.00000 1.00000
vn 0.00000 0.00000 -1.00000
vn 0.00000 0.00000 -1.00000
vn 0.00000 0.00000 -1.00000
vn 0.00000 0.00000 -1.00000
vn 0.00000 0.00000 1.00000
vn 0.00000 0.00000 1.00000
vn 0.00000 0.00000 1.00000
vn 0.00000 0.00000 1.00000
vn 0.00000 0.00000 -1.00000
vn 0.00000 0.00000 -1.00000
vn 0.00000 0.00000 -1.00000
vn 0.00000 0.00000 -1.00000
vn 0.00000 0.00000 1.00000
vn 0.00000 0.00000 1.00000
vn 0.00000 0.00000 1.00000
vn 0.00000 0.00000 1.00000
vn 0.00000 0.00000 -1.00000
vn 0.00000 0.00000 -1.00000
vn 0.00000 0.00000 -1.00000
vn 0.00000 0.00000 -1.00000
vn 0.00000 0.00000 1.00000
vn 0.00000 0.00000 1.00000
vn 0.00000 0.00000 1.00000
vn 0.00000 0.00000 1.00000
vn 0.00000 0.00000 -1.00000
vn 0.00000 0.00000 -1.00000
vn 0.00000 0.00000 -1.00000
vn 0.00000 0.00000 -1.00000
vn 0.00000 0.00000 1.00000
vn 0.00000 0.00000 1.00000
vn 0.00000 0.00000 1.00000
vn 0.00000 0.00000 1.00000
vn 0.00000 0.00000 -1.00000
vn 0.00000 0.00000 -1.00000
vn 0.00000 0.00000 -1.00000
vn 0.00000 0.00000 -1.00000
vn 0.00000 0.00000 1.00000
vn 0.00000 0.00000 1.00000
vn 0.00000 0.00000 1.00000
vn 0.00000 0.00000 1.00000
vn 0.00000 0.00000 -1.00000
vn 0.00000 0.00000 -1.00000
vn 0.00000 0.00000 -1.00000
vn 0.00000 0.00000 -1.00000
vn 0.00000 0.00000 1.00000
vn 0.00000 0.00000 1.00000
vn 0.00000 0.00000 1.00000
vn 0.00000 0.00000 1.00000
vn 0.00000 0.00000 -1.00000
vn 0.00000 0.00000 -1.00000
vn 0.00000 0.00000 -1.00000
vn 0.00000 0.00000 -1.00000
vn 0.00000 0.00000 1.00000
vn 0.00000 0.00000 1.00000
vn 0.00000 0.00000 1.00000
vn 0.00000 0.00000 1.00000
vn 0.00000 0.00000 -1.00000
vn 0.00000 0.00000 -1.00000
vn 0.00000 0.00000 -1.00000
vn 0.00000 0.00000 -1.00000
vn 0.00000 0.00000 1.00000
vn 0.00000 0.00000 1.00000
vn 0.00000 0.00000 1.00000
vn 0.00000 0.00000 1.00000
vn 0.00000 0.00000 -1.00000
vn 0.00000 0.00000 -1.00000
vn 0.00000 0.00000 -1.00000
vn 0.00000 0.00000 -1.00000
vn 0.00000 0.00000 1.00000
vn 0.00000 0.00000 1.00000
vn 0.00000 0.00000 1.00000
vn 0.00000 0.00000 1.00000
vn 0.00000 0.00000 -1.00000
vn 0.00000 0.00000 -1.00000
vn 0.00000 0.00000 -1.00000
vn 0.00000 0.00000 -1.00000
vn 0.00000 0.00000 1.00000
vn 0.00000 0.00000 1.00000
vn 0.00000 0.00000 1.00000
vn 0.00000 0.00000 1.00000
vn 0.00000 0.00000 -1.00000
vn 0.00000 0.00000 -1.00000
vn 0.00000 0.00000 -1.00000
vn 0.00000 0.00000 -1.00000
vn 0.00000 0.00000 1.00000
vn 0.00000 0.00000 1.00000
vn 0.00000 0.00000 1.00000
vn 0.00000 0.00000 1.00000
vn 0.00000 0.00000 -1.00000
vn 0.00000 0.00000 -1.00000
vn 0.00000 0.00000 -1.00000
vn 0.00000 0.00000 -1.00000
vn 0.00000 0.00000 1.00000
vn 0.00000 0.00000 1.00000
vn 0.00000 0.00000 1.00000
vn 0.00000 0.00000 1.00000
vn 0.00000 0.00000 -1.00000
vn 0.00000 0.00000 -1.00000
vn 0.00000 0.00000 -1.00000
vn 0.00000 0.00000 -1.00000
vn 0.00000 0.00000 1.00000
vn 0.00000 0.00000 1.00000
vn 0.00000 0.00000 1.00000
vn 0.00000 0.00000 1.00000
vn 0.00000 0.00000 -1.00000
vn 0.00000 0.00000 -1.00000
vn 0.00000 0.00000 -1.00000
vn 0.00000 0.00000 -1.00000
vn 0.00000 0.00000 1.00000
vn 0.00000 0.00000 1.00000
vn 0.00000 0.00000 1.00000
vn 0.00000 0.00000 1.00000
vn 1.00000 0.00000 0.00000
vn 0.98297 0.18375 0.00000
vn 0.98297 0.18375 0.00000
vn 1.00000 0.00000 0.00000
vn -1.00000 0.00000 0.00000
vn -0.98297 -0.18375 0.00000
vn -0.98297 -0.18375 0.00000
vn -1.00000 0.00000 0.00000
vn 0.98297 0.18375 0.00000
vn 0.93247 0.36124 0.00000
vn 0.93247 0.36124 0.00000
vn 0.98297 0.18375 0.00000
vn -0.98297 -0.18375 0.00000
vn -0.93247 -0.36124 0.00000
vn -0.93247 -0.36124 0.00000
vn -0.98297 -0.18375 0.00000
vn 0.93247 0.36124 0.00000
vn 0.85022 0.52643 0.00000
vn 0.85022 0.52643 0.00000
vn 0.93247 0.36124 0.00000
vn -0.93247 -0.36124 0.00000
vn -0.85022 -0.52643 0.00000
vn -0.85022 -0.52643 0.00000
vn -0.93247 -0.36124 0.00000
vn 0.85022 0.52643 0.00000
vn 0.73901 0.67370 0.00000
vn 0.73901 0.67370 0.00000
vn 0.85022 0.52643 0.00000
vn -0.85022 -0.52643 0.00000
vn -0.73901 -0.67370 0.00000
vn -0.73901 -0.67370 0.00000
vn -0.85022 -0.52643 0.00000
vn 0.73901 0.67370 0.00000
vn 0.60263 0.79802 0.00000
vn 0.60263 0.79802 0.00000
vn 0.73901 0.67370 0.00000
vn -0.73901 -0.67370 0.00000
vn -0.60263 -0.79802 0.00000
vn -0.60263 -0.79802 0.00000
vn -0.73901 -0.67370 0.00000
vn 0.60263 0.79802 0.00000
vn 0.44574 0.89516 0.00000
vn 0.44574 0.89516 0.00000
vn 0.60263 0.79802 0.00000
vn -0.60263 -0.79802 0.00000
vn -0.44574 -0.89516 0.00000
vn -0.44574 -0.89516 0.00000
vn -0.60263 -0.79802 0.00000
vn 0.44574 0.89516 0.00000
vn 0.27366 0.96183 0.00000
vn 0.27366 0.96183 0.00000
vn 0.44574 0.89516 0.00000
vn -0.44574 -0.89516 0.00000
vn -0.27366 -0.96183 0.00000
vn -0.27366 -0.96183 0.00000
vn -0.44574 -0.89516 0.00000
vn 0.27366 0.96183 0.00000
vn 0.09227 0.99573 0.00000
vn 0.09227 0.99573 0.00000
vn 0.27366 0.96183 0.00000
vn -0.27366 -0.96183 0.00000
vn -0.09227 -0.99573 0.00000
vn -0.09227 -0.99573 0.00000
vn -0.27366 -0.96183 0.00000
vn 0.09227 0.99573 0.00000
vn -0.09227 0.99573 0.00000
vn -0.09227 0.99573 0.00000
vn 0.09227 0.99573 0.00000
vn -0.09227 -0.99573 0.00000
vn 0.09227 -0.99573 0.00000
vn 0.09227 -0.99573 0.00000
vn -0.09227 -0.99573 0.00000
vn -0.09227 0.99573 0.00000
vn -0.27366 0.96183 0.00000
vn -0.27366 0.96183 0.00000
vn -0.09227 0.99573 0.00000
vn 0.09227 -0.99573 0.00000
vn 0.27366 -0.96183 0.00000
vn 0.27366 -0.96183 0.00000
vn 0.09227 -0.99573 0.00000
vn -0.27366 0.96183 0.00000
vn -0.44574 0.89516 0.00000
vn -0.44574 0.89516 0.00000
vn -0.27366 0.96183 0.00000
vn 0.27366 -0.96183 0.00000
vn 0.44574 -0.89516 0.00000
vn 0.44574 -0.89516 0.00000
vn 0.27366 -0.96183 0.00000
vn -0.44574 0.89516 0.00000
vn -0.60263 0.79802 0.00000
vn -0.60263 0.79802 0.00000
vn -0.44574 0.89516 0.00000
vn 0.44574 -0.89516 0.00000
vn 0.60263 -0.79802 0.00000
vn 0.60263 -0.79802 0.00000
vn 0.44574 -0.89516 0.00000
vn -0.60263 0.79802 0.00000
vn -0.73901 0.67370 0.00000
vn -0.73901 0.67370 0.00000
vn -0.60263 0.79802 0.00000
vn 0.60263 -0.79802 0.00000
vn 0.73901 -0.67370 0.00000
vn 0.73901 -0.67370 0.00000
vn 0.60263 -0.79802 0.00000
vn -0.73901 0.67370 0.00000
vn -0.85022 0.52643 0.00000
vn -0.85022 0.52643 0.00000
vn -0.73901 0.67370 0.00000
vn 0.73901 -0.67370 0.00000
vn 0.85022 -0.52643 0.00000
vn 0.85022 -0.52643 0.00000
vn 0.73901 -0.67370 0.00000
vn -0.85022 0.52643 0.00000
vn -0.93247 0.36124 0.00000
vn -0.93247 0.36124 0.00000
vn -0.85022 0.52643 0.00000
vn 0.85022 -0.52643 0.00000
vn 0.93247 -0.36124 0.00000
vn 0.93247 -0.36124 0.00000
vn 0.85022 -0.52643 0.00000
vn -0.93247 0.36124 0.00000
vn -0.98297 0.18375 0.00000
vn -0.98297 0.18375 0.00000
vn -0.93247 0.36124 0.00000
vn 0.93247 -0.36124 0.00000
vn 0.98297 -0.18375 0.00000
vn 0.98297 -0.18375 0.00000
vn 0.93247 -0.36124 0.00000
vn -0.98297 0.18375 0.00000
vn -1.00000 0.00000 0.00000
vn -1.00000 0.00000 0.00000
vn -0.98297 0.18375 0.00000
vn 0.98297 -0.18375 0.00000
vn 1.00000 -0.00000 0.00000
vn 1.00000 -0.00000 0.00000
vn 0.98297 -0.18375 0.00000
vn -1.00000 0.00000 0.00000
vn -0.98297 -0.18375 0.00000
vn -0.98297 -0.18375 0.00000
vn -1.00000 0.00000 0.00000
vn 1.00000 -0.00000 0.00000
vn 0.98297 0.18375 0.00000
vn 0.98297 0.18375 0.00000
vn 1.00000 -0.00000 0.00000
vn -0.98297 -0.18375 0.00000
vn -0.93247 -0.36124 0.00000
vn -0.93247 -0.36124 0.00000
vn -0.98297 -0.18375 0.00000
vn 0.98297 0.18375 0.00000
vn 0.93247 0.36124 0.00000
vn 0.93247 0.36124 0.00000
vn 0.98297 0.18375 0.00000
vn -0.93247 -0.36124 0.00000
vn -0.85022 -0.52643 0.00000
vn -0.85022 -0.52643 0.00000
vn -0.93247 -0.36124 0.00000
vn 0.93247 0.36124 0.00000
vn 0.85022 0.52643 0.00000
vn 0.85022 0.52643 0.00000
vn 0.93247 0.36124 0.00000
vn -0.85022 -0.52643 0.00000
vn -0.73901 -0.67370 0.00000
vn -0.73901 -0.67370 0.00000
vn -0.85022 -0.52643 0.00000
vn 0.85022 0.52643 0.00000
vn 0.73901 0.67370 0.00000
vn 0.73901 0.67370 0.00000
vn 0.85022 0.52643 0.00000
vn -0.73901 -0.67370 0.00000
vn -0.60263 -0.79802 0.00000
vn -0.60263 -0.79802 0.00000
vn -0.73901 -0.67370 0.00000
vn 0.73901 0.67370 0.00000
vn 0.60263 0.79802 0.00000
vn 0.60263 0.79802 0.00000
vn 0.73901 0.67370 0.00000
vn -0.60263 -0.79802 0.00000
vn -0.44574 -0.89516 0.00000
vn -0.44574 -0.89516 0.00000
vn -0.60263 -0.79802 0.00000
vn 0.60263 0.79802 0.00000
vn 0.44574 0.89516 0.00000
vn 0.44574 0.89516 0.00000
vn 0.60263 0.79802 0.00000
vn -0.44574 -0.89516 0.00000
vn -0.27366 -0.96183 0.00000
vn -0.27366 -0.96183 0.00000
vn -0.44574 -0.89516 0.00000
vn 0.44574 0.89516 0.00000
vn 0.27366 0.96183 0.00000
vn 0.27366 0.96183 0.00000
vn 0.44574 0.89516 0.00000
vn -0.27366 -0.96183 0.00000
vn -0.09227 -0.99573 0.00000
vn -0.09227 -0.99573 0.00000
vn -0.27366 -0.96183 0.00000
vn 0.27366 0.96183 0.00000
vn 0.09227 0.99573 0.00000
vn 0.09227 0.99573 0.00000
vn 0.27366 0.96183 0.00000
vn -0.09227 -0.99573 0.00000
vn 0.09227 -0.99573 0.00000
vn 0.09227 -0.99573 0.00000
vn -0.09227 -0.99573 0.00000
vn 0.09227 0.99573 0.00000
vn -0.09227 0.99573 0.00000
vn -0.09227 0.99573 0.00000
vn 0.09227 0.99573 0.00000
vn 0.09227 -0.99573 0.00000
vn 0.27366 -0.96183 0.00000
vn 0.27366 -0.96183 0.00000
vn 0.09227 -0.99573 0.00000
vn -0.09227 0.99573 0.00000
vn -0.27366 0.96183 0.00000
vn -0.27366 0.96183 0.00000
vn -0.09227 0.99573 0.00000
vn 0.27366 -0.96183 0.00000
vn 0.44574 -0.89516 0.00000
vn 0.44574 -0.89516 0.00000
vn 0.27366 -0.96183 0.00000
vn -0.27366 0.96183 0.00000
vn -0.44574 0.89516 0.00000
vn -0.44574 0.89516 0.00000
vn -0.27366 0.96183 0.00000
vn 0.44574 -0.89516 0.00000
vn 0.60263 -0.79802 0.00000
vn 0.60263 -0.79802 0.00000
vn 0.44574 -0.89516 0.00000
vn -0.44574 0.89516 0.00000
vn -0.60263 0.79802 0.00000
vn -0.60263 0.79802 0.00000
vn -0.44574 0.89516 0.00000
vn 0.60263 -0.79802 0.00000
vn 0.73901 -0.67370 0.00000
vn 0.73901 -0.67370 0.00000
vn 0.60263 -0.79802 0.00000
vn -0.60263 0.79802 0.00000
vn -0.73901 0.67370 0.00000
vn -0.73901 0.67370 0.00000
vn -0.60263 0.79802 0.00000
vn 0.73901 -0.67370 0.00000
vn 0.85022 -0.52643 0.00000
vn 0.85022 -0.52643 0.00000
vn 0.73901 -0.67370 0.00000
vn -0.73901 0.67370 0.00000
vn -0.85022 0.52643 0.00000
vn -0.85022 0.52643 0.00000
vn -0.73901 0.67370 0.00000
vn 0.85022 -0.52643 0.00000
vn 0.93247 -0.36124 0.00000
vn 0.93247 -0.36124 0.00000
vn 0.85022 -0.52643 0.00000
vn -0.85022 0.52643 0.00000
vn -0.93247 0.36124 0.00000
vn -0.93247 0.36124 0.00000
vn -0.85022 0.52643 0.00000
vn 0.93247 -0.36124 0.00000
vn 0.98297 -0.18375 0.00000
vn 0.98297 -0.18375 0.00000
vn 0.93247 -0.36124 0.00000
vn -0.93247 0.36124 0.00000
vn -0.98297 0.18375 0.00000
vn -0.98297 0.18375 0.00000
vn -0.93247 0.36124 0.00000
vn 0.98297 -0.18375 0.00000
vn 1.00000 0.00000 0.00000
vn 1.00000 0.00000 0.00000
vn 0.98297 -0.18375 0.00000
vn -0.98297 0.18375 0.00000
vn -1.00000 0.00000 0.00000
vn -1.00000 0.00000 0.00000
vn -0.98297 0.18375 0.00000
f 2//2 3//3 4//4 1//1 
f 7//7 5//5 8//8 6//6 
f 9//10 10//11 3//12 2//9 
f 12//15 7//13 6//16 11//14 
f 13//18 14//19 10//20 9//17 
f 16//23 12//21 11//24 15//22 
f 17//26 18//27 14//28 13//25 
f 20//31 16//29 15//32 19//30 
f 21//34 22//35 18//36 17//33 
f 24//39 20//37 19//40 23//38 
f 25//42 26//43 22//44 21//41 
f 28//47 24//45 23//48 27//46 
f 29//50 30//51 26//52 25//49 
f 32//55 28//53 27//56 31//54 
f 33//58 34//59 30//60 29//57 
f 36//63 32//61 31//64 35//62 
f 37//66 38//67 34//68 33//65 
f 40//71 36//69 35//72 39//70 
f 41//74 42//75 38//76 37//73 
f 44//79 40//77 39//80 43//78 
f 45//82 46//83 42//84 41//81 
f 48//87 44//85 43//88 47//86 
f 49//90 50//91 46//92 45//89 
f 52//95 48//93 47//96 51//94 
f 53//98 54//99 50//100 49//97 
f 56//103 52//101 51//104 55//102 
f 57//106 58//107 54//108 53//105 
f 60//111 56//109 55//112 59//110 
f 61//114 62//115 58//116 57//113 
f 64//119 60//117 59//120 63//118 
f 65//122 66//123 62//124 61//121 
f 68//127 64//125 63//128 67//126 
f 69//130 70//131 66//132 65//129 
f 72//135 68//133 67//136 71//134 
f 73//138 74//139 70//140 69//137 
f 76//143 72//141 71//144 75//142 
f 77//146 78//147 74//148 73//145 
f 80//151 76//149 75//152 79//150 
f 81//154 82//155 78//156 77//153 
f 84//159 80//157 79//160 83//158 
f 85//162 86//163 82//164 81//161 
f 88//167 84//165 83//168 87//166 
f 89//170 90//171 86//172 85//169 
f 92//175 88//173 87//176 91//174 
f 93//178 94//179 90//180 89//177 
f 96//183 92//181 91//184 95//182 
f 97//186 98//187 94//188 93//185 
f 100//191 96//189 95//192 99//190 
f 101//194 102//195 98//196 97//193 
f 104//199 100//197 99//200 103//198 
f 105//202 106//203 102//204 101//201 
f 108//207 104//205 103//208 107//206 
f 109//210 110//211 106//212 105//209 
f 112//215 108//213 107//216 111//214 
f 113//218 114//219 110//220 109//217 
f 116//223 112//221 111//224 115//222 
f 117//226 118//227 114//228 113//225 
f 120//231 116//229 115//232 119//230 
f 121//234 122//235 118//236 117//233 
f 124//239 120//237 119//240 123//238 
f 125//242 126//243 122//244 121//241 
f 128//247 124//245 123//248 127//246 
f 129//250 130//251 126//252 125//249 
f 132//255 128//253 127//256 131//254 
f 133//258 134//259 130//260 129//257 
f 136//263 132//261 131//264 135//262 
f 1//266 4//267 134//268 133//265 
f 5//271 136//269 135//272 8//270 
f 3//274 6//275 8//276 4//273 
f 2//279 1//277 5//280 7//278 
f 10//282 11//283 6//284 3//281 
f 9//287 2//285 7//288 12//286 
f 14//290 15//291 11//292 10//289 
f 13//295 9//293 12//296 16//294 
f 18//298 19//299 15//300 14//297 
f 17//303 13//301 16//304 20//302 
f 22//306 23//307 19//308 18//305 
f 21//311 17//309 20//312 24//310 
f 26//314 27//315 23//316 22//313 
f 25//319 21//317 24//320 28//318 
f 30//322 31//323 27//324 26//321 
f 29//327 25//325 28//328 32//326 
f 34//330 35//331 31//332 30//329 
f 33//335 29//333 32//336 36//334 
f 38//338 39//339 35//340 34//337 
f 37//343 33//341 36//344 40//342 
f 42//346 43//347 39//348 38//345 
f 41//351 37//349 40//352 44//350 
f 46//354 47//355 43//356 42//353 
f 45//359 41//357 44//360 48//358 
f 50//362 51//363 47//364 46//361 
f 49//367 45//365 48//368 52//366 
f 54//370 55//371 51//372 50//369 
f 53//375 49//373 52//376 56//374 
f 58//378 59//379 55//380 54//377 
f 57//383 53//381 56//384 60//382 
f 62//386 63//387 59//388 58//385 
f 61//391 57//389 60//392 64//390 
f 66//394 67//395 63//396 62//393 
f 65//399 61//397 64//400 68//398 
f 70//402 71//403 67//404 66//401 
f 69//407 65//405 68//408 72//406 
f 74//410 75//411 71//412 70//409 
f 73//415 69//413 72//416 76//414 
f 78//418 79//419 75//420 74//417 
f 77//423 73//421 76//424 80//422 
f 82//426 83//427 79//428 78//425 
f 81//431 77//429 80//432 84//430 
f 86//434 87//435 83//436 82//433 
f 85//439 81//437 84//440 88//438 
f 90//442 91//443 87//444 86//441 
f 89//447 85//445 88//448 92//446 
f 94//450 95//451 91//452 90//449 
f 93//455 89//453 92//456 96//454 
f 98//458 99//459 95//460 94//457 
f 97//463 93//461 96//464 100//462 
f 102//466 103//467 99//468 98//465 
f 101//471 97//469 100//472 104//470 
f 106//474 107//475 103//476 102//473 
f 105//479 101//477 104//480 108//478 
f 110//482 111//483 107//484 106//481 
f 109//487 105//485 108//488 112//486 
f 114//490 115//491 111//492 110//489 
f 113//495 109//493 112//496 116//494 
f 118//498 119//499 115//500 114//497 
f 117//503 113//501 116//504 120//502 
f 122//506 123//507 119//508 118//505 
f 121//511 117//509 120//512 124//510 
f 126//514 127//515 123//516 122//513 
f 125//519 121//517 124//520 128//518 
f 130//522 131//523 127//524 126//521 
f 129//527 125//525 128//528 132//526 
f 134//530 135//531 131//532 130//529 
f 133//535 129//533 132//536 136//534 
f 4//538 8//539 135//540 134//537 
f 1//543 133//541 136//544 5//542 
